<svg width="24" height="24" viewBox="0 0 24 24" fill="none" xmlns="http://www.w3.org/2000/svg">
<path d="M19.707 6.29303C19.8945 6.48056 19.9998 6.73487 19.9998 7.00003C19.9998 7.26519 19.8945 7.5195 19.707 7.70703L9.70699 17.707C9.51946 17.8945 9.26515 17.9998 8.99999 17.9998C8.73483 17.9998 8.48052 17.8945 8.29299 17.707L4.29299 13.707C4.19748 13.6148 4.1213 13.5044 4.06889 13.3824C4.01648 13.2604 3.98889 13.1292 3.98774 12.9964C3.98659 12.8637 4.01189 12.732 4.06217 12.6091C4.11245 12.4862 4.1867 12.3745 4.28059 12.2806C4.37449 12.1867 4.48614 12.1125 4.60904 12.0622C4.73193 12.0119 4.86361 11.9866 4.99639 11.9878C5.12917 11.9889 5.26039 12.0165 5.38239 12.0689C5.5044 12.1213 5.61474 12.1975 5.70699 12.293L8.99999 15.586L18.293 6.29303C18.4805 6.10556 18.7348 6.00024 19 6.00024C19.2652 6.00024 19.5195 6.10556 19.707 6.29303Z" fill="black"/>
</svg>
